<svg xmlns="http://www.w3.org/2000/svg" viewBox="0 0 512 512"><g fill="none" stroke-width="2"><path stroke="#343536" d="M512 243.06c-3.17-38.15-11.66-71.63-29.56-105.81-3.38-6.44-6.16-11.54-12.69-14.04" vector-effect="non-scaling-stroke"/><path stroke="#1c7a1d" d="m469.75 123.21 2.15-2.12a.87.86-29.4 0 0 .24-.83q-.7-2.79-2.6-5.01" vector-effect="non-scaling-stroke"/><path stroke="#407a41" d="M469.54 115.25q-6.99-11.43-15.79-21.54" vector-effect="non-scaling-stroke"/><path stroke="#2f7731" d="M453.75 93.71q-22.46-27.75-51.97-47.99" vector-effect="non-scaling-stroke"/><path stroke="#1c7a1d" d="M401.78 45.72 389 37.59" vector-effect="non-scaling-stroke"/><path stroke="#272728" d="M389 37.59q-30.65-19.32-65.76-28.58-8.8-2.32-11.49-2.52c-16.7-1.22-33.41-1.79-50.12-2.66q-12.33-.64-24.62.53c-17.55 1.66-34.19.36-51.46 5.42q-14.79 4.32-28.98 10.29-14.28 6-27.65 13.73" vector-effect="non-scaling-stroke"/><path stroke="#1c7a1d" d="M128.92 33.8Q89.56 56.32 60.46 91" vector-effect="non-scaling-stroke"/><path stroke="#2f7731" d="M60.46 91q-7.36 8.46-13.71 17.71" vector-effect="non-scaling-stroke"/><path stroke="#1c7a1d" d="M46.75 108.71q-2.42 2.71-3.8 6.04a.81.8 36.6 0 0 .13.83l2.42 2.88" vector-effect="non-scaling-stroke"/><path stroke="#343536" d="m45.5 118.46-1.29-.61a.92.91 41.5 0 0-.87.05q-2.27 1.4-4.53 4.4-7.3 9.72-11.3 17.95C8.37 179.56-1.53 221.95.37 265.77c1.79 41.36 11.99 79.65 32.89 115.48q1.48 2.54 3.9 5.21c3.68 4.07 4.73 8.7 9.38 10.79" vector-effect="non-scaling-stroke"/><path stroke="#1e7020" d="M46.54 397.25q-1.29.74-1.9 2a.92.9 43.1 0 0 .04.89q2.59 4.22 6.73 9.68 32.72 43.15 79.38 69.43" vector-effect="non-scaling-stroke"/><path stroke="#272728" d="M130.79 479.25c1.35.8 2.26 1.97 3.63 2.6q8.2 3.78 16.44 7.48 25.93 11.62 53.63 17.47c13.88 2.93 26.07 3.59 40.69 4.01 22.41.64 43.42.39 64.36-4.37q37.13-8.44 70.78-26.48c2.39-1.28 4.29-2.8 6.43-4.42" vector-effect="non-scaling-stroke"/><path stroke="#1c7a1d" d="m386.75 475.54 7-3.78" vector-effect="non-scaling-stroke"/><path stroke="#1e7020" d="M393.75 471.76q42.27-27.11 71.21-68.01" vector-effect="non-scaling-stroke"/><path stroke="#1c7a1d" d="M464.96 403.75q3.31-4 5.34-8.76a.71.71 0 0 0-.16-.79l-1.43-1.45" vector-effect="non-scaling-stroke"/><path stroke="#343536" d="m468.71 392.75-.08-1.3a.62.62 0 0 1 .53-.65l3.01-.43a1.35 1.34 16.4 0 0 .83-.45q3.08-3.6 4.75-6.45c21.54-36.79 32.47-76.81 34.25-119.41" vector-effect="non-scaling-stroke"/><path stroke="#187618" d="M389 37.59c-5.42 12.79-11.87 25.22-18.04 37.66" vector-effect="non-scaling-stroke"/><path stroke="#2a2a2a" d="M370.96 75.25q-3.9-7.77-12.21-8.38-3.77-.29-5.61-.74c-11.38-2.81-23.27-3.21-34.89-4.56q-10.41-1.22-24.88-1.1c-3.34.03-7.53-1-11.46-.4q-4.33.67-6.05.66-28.68-.08-57.36.3-4.53.06-7.36.6c-7.96 1.51-16.25 2.17-24.33 2.77q-3.55.27-7.58 1.42c-5.47 1.58-11.4 1.89-16.65 3.86-2.88 1.08-5.18.05-8.22 1.81q-.49.28.07.27l.36-.01q.82-.03.24.55-1.7 1.67-4.18 1.26a.82.79-10.7 0 1-.55-.36l-.3-.46q-.18-.28-.3.03l-.91 2.23" vector-effect="non-scaling-stroke"/><path stroke="#187618" d="m148.79 75-19.87-41.2" vector-effect="non-scaling-stroke"/><path stroke="#1f7d1f" d="m148.79 75 24.46 51.54" vector-effect="non-scaling-stroke"/><path stroke="#268425" d="m173.25 126.54 18.46 37.71" vector-effect="non-scaling-stroke"/><path stroke="#2c8a2c" d="M191.71 164.25c11.65 23.24 22.61 46.85 33.58 70.5" vector-effect="non-scaling-stroke"/><path stroke="#359435" d="M225.29 234.75q3.92 7.46 7.75 14.94c2.44 4.77 3.39 7.48 1.49 12.85-6.13 17.33-15.72 34.22-23.53 50.92" vector-effect="non-scaling-stroke"/><path stroke="#2c8a2c" d="M211 313.46c-11.76 23.17-22.94 47-34.04 70.29" vector-effect="non-scaling-stroke"/><path stroke="#1f7d1f" d="m176.96 383.75-34.25 70.75" vector-effect="non-scaling-stroke"/><path stroke="#187618" d="m142.71 454.5-5.98 12.36" vector-effect="non-scaling-stroke"/><path stroke="#0fbf0f" d="m136.73 466.86-2.03-3.45q-.54-.93-.76.13l-.26 1.35q-.09.43-.33.06l-.28-.41q-.61-.92-.59.18l.04 1.99q.01.34-.12.03l-2.01-4.83a1.54 1.5-50.9 0 1-.08-.87q.6-2.76 1.89-4.85c8.72-14.23 13.78-29.66 21.74-44.14 4.48-8.14 7.78-16.53 12.01-24.35q3.63-6.72 5.48-10.79 2.61-5.75 5.09-10.98" vector-effect="non-scaling-stroke"/><path stroke="#20c620" d="M176.52 365.93c2.77-5.74 6.1-10.91 8.37-16.57q3.53-8.82 7.51-17.31" vector-effect="non-scaling-stroke"/><path stroke="#2bd32c" d="M192.4 332.05c5.02-9.81 10.4-19.54 15.12-29.29 6.2-12.79 13.05-25.25 18.55-38.37 3.7-8.84-1.29-13.98-4.71-21.61-3.24-7.23-6.12-14.96-10.82-23.03" vector-effect="non-scaling-stroke"/><path stroke="#4ed74e" d="M210.54 219.75 194.46 188" vector-effect="non-scaling-stroke"/><path stroke="#40cd40" d="m194.46 188-12.71-26.04" vector-effect="non-scaling-stroke"/><path stroke="#31c931" d="m181.75 161.96-5.71-13.21" vector-effect="non-scaling-stroke"/><path stroke="#20c620" d="M176.04 148.75q-4.96-12.6-11.67-24.32c-6.99-12.21-12.18-24.21-17.82-36.62-2.77-6.1-3.71-9.17-8.38-12.06-1.15-.71-2.73-.55-4.03-.44-2.17.19-4.41-.9-6.54.9a1.51 1.48-66.3 0 1-.87.35c-3.69.24-6.89.12-10.54 1.24q-4.32 1.33-8.76 2.2c-7.65 1.5-14.35 4.09-21.51 6.46a.69.69 0 0 1-.8-.28l-.33-.53a.54.54 0 0 0-.63-.22q-2.03.69-4.05 1.39c-2.64.93-5.58 2.7-8.76 3.4-2.47.55-4.61 1.8-7.2 2.17a.13.12-5.8 0 1-.15-.12v-.31a.45.45 0 0 0-.58-.42q-1.07.33-1.54-.85-.17-.42-.43-.06-.39.5-.99.37M401.78 45.72q-4.23 3.85-8.64 7.42-3.58 2.89-7.19 9.45c-.99 1.8-3.36 3.16-3.91 4.72q-6.87 19.68-17.23 37.75-1.21 2.12-3.49 8.61c-.66 1.9-2.6 4.11-2.28 7.08" vector-effect="non-scaling-stroke"/><path stroke="#31c931" d="M359.04 120.75q-1.16 2.32-5.6 9.69-3.68 6.1-10.78 21.21" vector-effect="non-scaling-stroke"/><path stroke="#40cd40" d="m342.66 151.65-9.75 20.08" vector-effect="non-scaling-stroke"/><path stroke="#4ed74e" d="M332.91 171.73q-6.8 13.14-10.16 21.02-.74 1.74-1.29 2.25" vector-effect="non-scaling-stroke"/><path stroke="#2bd32c" d="m321.46 195-.65.53q-.39.31-.56.78-5.37 14.01-8.44 19.75-11.05 20.69-20.27 42.27a1.46 1.44 49.7 0 0-.07.95c.43 1.61.66 3.52 1.42 4.97q11.01 21.17 21.57 42.55c4.75 9.6 11.71 22.47 17.04 33.99" vector-effect="non-scaling-stroke"/><path stroke="#20c620" d="m331.5 340.79 17.54 37.46" vector-effect="non-scaling-stroke"/><path stroke="#0fbf0f" d="M349.04 378.25c3.71 6.82 7.02 12.81 10.32 20.64q3.97 9.41 10.69 21.3c3.64 6.42 7 15.09 11.51 23.08q7.66 13.54 12.19 28.49" vector-effect="non-scaling-stroke"/><path stroke="#187618" d="M386.75 475.54c-2-6.69-5.33-12.83-8.54-19.04" vector-effect="non-scaling-stroke"/><path stroke="#1f7d1f" d="m378.21 456.5-36.17-74.25" vector-effect="non-scaling-stroke"/><path stroke="#2c8a2c" d="M342.04 382.25c-11.5-23.4-22.23-47.29-33.75-70.5" vector-effect="non-scaling-stroke"/><path stroke="#359435" d="M308.29 311.75q-7.78-17.01-20.09-40.7c-2.55-4.92-6.83-12.6-3.25-19.49q5.29-10.2 10.26-20.56" vector-effect="non-scaling-stroke"/><path stroke="#2c8a2c" d="M295.21 231q10.79-21.11 20.83-42.6c3.79-8.11 7.56-15.97 11.75-23.9" vector-effect="non-scaling-stroke"/><path stroke="#268425" d="m327.79 164.5 19.25-39.5" vector-effect="non-scaling-stroke"/><path stroke="#1f7d1f" d="M347.04 125c2.58-4.99 4.83-10.55 7.2-15.17q8.75-17.1 16.72-34.58" vector-effect="non-scaling-stroke"/><path stroke="#44c645" d="M453.75 93.71q-.16-.02-.28.02a.23.22 59.4 0 0-.09.36l.3.34a.33.33 0 0 1-.09.52l-1.48.75q-.45.23-.94.25l-5.06.2a1.25 1.24 20 0 0-.87.4c-1.92 2.13-4.82 1.68-7.48 1.9a.69.68-79.6 0 0-.57.4l-.12.28a.61.61 0 0 1-.49.36l-10.89 1.36q-.23.02-.05-.12l.22-.19q.54-.45-.15-.34c-12.59 1.96-25.66-.62-38.21 1.86-2.81.55-5.16-.19-8.21 1.07q-.5.21-1.04.14-4.03-.52-8 .38a1.53 1.52-78.5 0 0-.87.58q-5.71 7.94-10.34 16.52" vector-effect="non-scaling-stroke"/><path stroke="#383838" d="M347.04 125q-.46-1.41.19-2.6a.48.47-62.4 0 0-.2-.65c-4.27-2.17-7.74-3.37-12.92-3.4q-5.76-.03-11.36-1.4c-5.47-1.34-11.18-.5-16.85-1.38q-10.3-1.61-10.34-1.61c-21.09-2.18-44.43-.97-63.79-1.14-12.86-.11-22.45 1.61-33.61 6.1-1.19.48-2.74.38-3.95.21a1.67 1.64 36.2 0 0-.97.14q-2.21 1-4.5.25a1.02 1.01-58.5 0 0-1.03.25q-1.09 1.11-2.61.44-.48-.21-1-.15l-10.64 1.09a.49.49 0 0 0-.38.72q.24.45.2.97-.06.78-.35.06l-.26-.63q-.36-.88-.58.04c-.41 1.72 2.4 2.34 1.16 4.23" vector-effect="non-scaling-stroke"/><path stroke="#44c645" d="M176.04 148.75c-7.48-.53-15.99 1.64-22.29 6.32q-2.56 1.9-4.4 2.7-9.46 4.07-18.19 9.51-3.15 1.96-6.26 3.06c-4.29 1.51-8.26 1.88-10.65 6.2" vector-effect="non-scaling-stroke"/><path stroke="#20c620" d="M114.25 176.54q-15.9-16.91-32.31-33.34c-9.23-9.24-18.78-20.43-28.76-30.2-1.51-1.48-3.93-2.29-5.74-3.63a.19.08-67.5 0 1 0-.18l.08-.25a.12.11-79.8 0 0-.1-.15l-.67-.08" vector-effect="non-scaling-stroke"/><path stroke="#31c931" d="M469.54 115.25c-1.02.31-1.42.15-2.23.94-15.73 15.39-30.97 30.29-46.52 45.31" vector-effect="non-scaling-stroke"/><path stroke="#64cd65" d="m420.79 161.5 1.8-2.82a.92.91 49.5 0 0 .06-.86l-1.07-2.38a1.04 1.02 83.2 0 0-.75-.6c-3.71-.77-4.27 1.87-7.27 2.53-1.62.36-3.54-.4-5.47.01-3.89.83-8.66.16-12.69.09-1.06-.01-2.32.33-3.64 0-2.62-.67-4.98-.95-7.61-1.29a.17.17 0 0 1-.15-.17l.01-.3a.46.45-84.7 0 0-.37-.45l-8.14-1.44q-.82-.14-.08.25l.29.15q1.69.89-.14.34-6.2-1.85-12.63-2.34a1.02 1.01-20.6 0 1-.62-.28l-.33-.32a1.14 1.13 65.2 0 0-.89-.33c-3.66.27-6.62.1-9.95-1.46-2.72-1.27-6.35-.09-8.49 1.82" vector-effect="non-scaling-stroke"/><path stroke="#31c931" d="M114.25 176.54q8.15 9.55 17.46 17.96" vector-effect="non-scaling-stroke"/><path stroke="#40cd40" d="M131.71 194.5 156 218.79" vector-effect="non-scaling-stroke"/><path stroke="#4ed74e" d="M156 218.79q8.08 8.97 17.61 17.18" vector-effect="non-scaling-stroke"/><path stroke="#2bd32c" d="M173.61 235.97q11.77 9.56 21.74 22.03a1.85 1.84-43.8 0 1-.05 2.38q-5.24 5.97-11.58 11.26c-5.46 4.56-9.34 8.75-13.76 13.61" vector-effect="non-scaling-stroke"/><path stroke="#20c620" d="M169.96 285.25q-15.35 14.54-29.5 30.25" vector-effect="non-scaling-stroke"/><path stroke="#0fbf0f" d="M140.46 315.5c-10.37 10.36-19.58 19.37-31.66 30.43q-14.4 13.17-27.61 27.59a1.79 1.77-74.4 0 1-.89.51q-2.64.63-4.67 2.41a1.15 1.14-21.9 0 0-.39.9c.12 4.24-8.35 10.82-11.56 13.2a1.35 1.33-43 0 1-1.65-.05q-1.81-1.54-4.17-1.69-1.03-.07-.38-.88l1.74-2.15a.14.13-47 0 0 0-.17q-.12-.14-.22-.14" vector-effect="non-scaling-stroke"/><path stroke="#268425" d="M59 385.46c16.41-16.85 33.22-33.28 49.49-50.27" vector-effect="non-scaling-stroke"/><path stroke="#2c8a2c" d="M108.49 335.19q37.17-37.29 74.71-74.24 2.18-2.15.72-3.61-39.24-39.17-78.17-78.63" vector-effect="non-scaling-stroke"/><path stroke="#268425" d="M105.75 178.71 45.5 118.46" vector-effect="non-scaling-stroke"/><path stroke="#454545" d="M327.79 164.5q.08-.55-.13-1.04a.38.37 53.6 0 0-.63-.1q-.11.12-.3.15a.63.62 26.5 0 1-.39-1.16q2.54-1.46 2.56-4.34a.69.69 0 0 0-.66-.7q-2.48-.12-3.81-2.15a.79.79 0 0 0-.72-.34q-11.52 1.23-14.64.64-8.59-1.62-17.29-2.37c-2.56-.22-4.98-1.48-7.72-1.52q-18.88-.32-40.63.32c-2.67.08-5.4 1.97-7.44 1.9q-15.78-.5-20.68.07-6.47.75-10.7.05c-4.42-.73-7.65 1.85-11.69 2.61q-.5.09-.92.38l-2.08 1.44a.57.56 62.6 0 0-.21.67l2 5.24" vector-effect="non-scaling-stroke"/><path stroke="#268425" d="m469.75 123.21-57.25 57.5" vector-effect="non-scaling-stroke"/><path stroke="#2c8a2c" d="M412.5 180.71c-10.62 10.38-21.16 21.63-31.34 31.6q-22.32 21.86-44.23 44.12-1.01 1.02-2.05 1.98a.47.46 46.2 0 0-.01.68c13.45 13.22 26.48 27.11 39.88 40.01 10.75 10.34 21.86 21.91 33 32.69" vector-effect="non-scaling-stroke"/><path stroke="#268425" d="m407.75 331.79 60.96 60.96" vector-effect="non-scaling-stroke"/><path stroke="#0fbf0f" d="M464.96 403.75q-.46-.4-.33-.96.1-.4-.2-.11l-.23.23q-.31.3-.4-.13-.94-4.71-4.91-6.7-2.57-1.29-3.57-2.2c-5.39-4.9-8.91-9.02-14.93-15.69q-1.57-1.73-4.22-5.77c-2.81-4.3-7.32-7.75-10.18-10.59q-9.9-9.81-19.18-20.2c-5.41-6.07-10.32-13.85-17.81-19.67" vector-effect="non-scaling-stroke"/><path stroke="#20c620" d="M389 321.96q-13.69-11.21-25.96-23.96" vector-effect="non-scaling-stroke"/><path stroke="#2bd32c" d="M363.04 298q-4.24-5.8-11.41-12.39-14.24-13.11-27.69-26.62a1.32 1.32 0 0 1 .05-1.91q16.27-14.67 31.34-30.5.3-.32.71-.48a1.13 1.13 0 0 0 .63-.63q.9-2.19 2.39-3.41 4.26-3.48 6.48-5.89c2-2.16 4.05-2.01 5.5-5.23q.2-.46.53-.83l.73-.84q.33-.37.77-.59c4.78-2.38 8.49-6.23 8.23-11.88a.82.82 0 0 1 .4-.74l4.51-2.56" vector-effect="non-scaling-stroke"/><path stroke="#4ed74e" d="M386.21 193.5q4.15-1.13 7.08-4.25" vector-effect="non-scaling-stroke"/><path stroke="#40cd40" d="M393.29 189.25q.57-.41 1.05-.91 13.06-13.58 26.45-26.84" vector-effect="non-scaling-stroke"/><path stroke="#454545" d="M105.75 178.71q-.87.76-1.95.89a1.59 1.58-69.2 0 0-.86.39q-1.4 1.24-3.99 2.95c-5.19 3.42-8.78 9.17-15 13.09-5.53 3.47-12.8 10.43-16.53 15.76-2.07 2.95-4.28 5.41-5.79 8.5q-3.62 7.4-6.11 15.25c-1.58 4.99-2.15 10.97-3.32 16.47q-.7 3.33-.16 12.99c.32 5.75 2.74 11.09 4.21 16.7 1.59 6.05 3.56 10.29 6.68 15.17 3.67 5.75 5.82 12.21 10.95 16.83 3.17 2.85 3.56 6.04 7.77 8.39q.46.26.75.7 1.94 2.94 5.51 3.39a1.45 1.43 70.1 0 1 .8.38c2.9 2.72 6.87 5.09 10.56 9.19a1.5 1.49 20.2 0 1 .38.82q.2 1.58 1.75 2.09a.66.65-72.6 0 1 .42.81l-.29 1.01q-.12.41.21.14l6.75-5.43" vector-effect="non-scaling-stroke"/><path stroke="#287928" d="m59 385.46-12.46 11.79" vector-effect="non-scaling-stroke"/><path stroke="#454545" d="M407.75 331.79q.49-.09.89.17.38.24.36-.21-.01-.21-.21-.3-.56-.25.24-.48 2.51-.74 3.71 1.21a.73.73 0 0 0 .73.34l1.46-.24a1.34 1.32 53.7 0 1 .82.13c4.26 2.21 10.64-8.37 13.59-10.77 3.16-2.57 4.93-6 8.36-8.31 2.93-1.98 4.77-5.28 7.53-7.63q2.11-1.79 3.21-3.66c3.88-6.65 8.76-13.89 10.61-21.4q1.89-7.68 1.94-10.21c.18-7.65 2.8-18.36-.23-26.87-1.29-3.64-4.36-5.58-5.62-9.75-1.69-5.61-4.58-9.45-9.11-13.15q-.39-.32-.58-.79-2.93-7.2-9.03-11.87c-2.02-1.55-2.99-3.26-4.61-5.12-3.17-3.63-3.58-8.26-7.07-11.62-2.64-2.55-6.78-3.29-10.32-3.72a1.44 1.44 0 0 1-.86-2.42q1.88-1.94 1.15-4.47a.51.5-15 0 0-.62-.35l-1.59.41" vector-effect="non-scaling-stroke"/><path stroke="#64cd65" d="M181.75 161.96q-4.07-.3-7.54 1.56c-4.5 2.41-8.95 4.27-13.68 6.15a.83.82 78.6 0 0-.53.8v.31a.88.86-14.3 0 1-.49.81c-3.24 1.54-5.44 4.29-8.43 5.78-5.15 2.55-13.61 6.52-16.16 11.86a1.42 1.4-89.2 0 1-.67.66c-1.93.89-1.45 2.36-2.77 3.22a.41.4 55.4 0 0-.1.58q.27.35.33.81" vector-effect="non-scaling-stroke"/><path stroke="#81db82" d="M393.29 189.25c-1.31-5-5-4.3-8.19-7.03-3.1-2.64-9-4.29-12.92-5.39q-.35-.1-.15.21l.18.27q.14.23-.12.18c-4.88-.93-10.46-.16-14.96-1.79q-4.62-1.67-9.6-1.76-.27-.01-.07.17l.2.17q.59.52-.18.38c-2.14-.39-3.69-1.63-5.63-2.01q-4.34-.84-8.94-.92" vector-effect="non-scaling-stroke"/><path stroke="#545555" d="M295.21 231q-1.22.16-1.53 1.32a.59.58 8.2 0 1-.58.43l-.36-.01a.93.91-13.2 0 1-.77-.47c-3.08-5.48-7.13-4.25-12.11-5.1-4.95-.85-10.23.73-14.73-.4-4.47-1.12-10.27-2.15-14.78-.92q-2.14.59-4.29 1.18c-4.15 1.15-10.52-.99-13.21 2.34a.74.74 0 0 1-.74.26l-2-.47a.95.94 21.7 0 0-1.02.43q-1.36 2.25-3.9 1.38a.49.49 0 0 0-.64.38q-.19 1.11.77 2.24a.82.81 35.2 0 1 .15.82q-.06.18-.18.34" vector-effect="non-scaling-stroke"/><path stroke="#81db82" d="M194.46 188c-2.36.06-4.45 2.66-6.42 3.8q-.15.08.01.14l.27.08a.17.16 26.4 0 1 .09.25c-1.42 1.93-3.16 2.2-4.71 3.11q-3.59 2.09-7.2 4.17a1.55 1.48-3.9 0 0-.64.7c-1.6 3.63-4.39 3.66-6.88 5.67q-1.85 1.51-3.79 2.93c-2.96 2.17-4.78 5.22-7.98 7.4a.8.8 0 0 0-.35.75q.14 1.21-.86 1.79" vector-effect="non-scaling-stroke"/><path stroke="#6ce16d" d="M386.21 193.5c-8.67 1.23-17.21 1.39-26.04 1.69-11.1.37-22.17 1.95-33.17 3.35q-1.66.21-5.24-.2a.55.54-85 0 1-.48-.58l.18-2.76M210.54 219.75q.86 3.73-2.12 4.95-12.98 5.3-34.81 11.27" vector-effect="non-scaling-stroke"/><path stroke="#3ed040" d="M363.04 298q2.14 3.47-1.28 5.66-.42.27-.66.7c-1.52 2.72-4.25 4.36-5.77 6.43q-2.29 3.12-4.25 6.48c-1.75 3.02-4.56 4.67-5.96 8.18q-1.07 2.69-2.07 4.12-2.84 4.07-4.96 8.6-.21.43-.55.76l-3.31 3.16a.51.51 0 0 1-.63.06l-2.1-1.36M192.4 332.05q-3.77-1.8-4.87-6.05c-2-7.76-8.22-12.55-10.2-19.92-.66-2.44-1.53-3.65-2.7-5.64-1.35-2.3-1.9-6.1-4.04-8.04q-3.91-3.55-.63-7.15" vector-effect="non-scaling-stroke"/><path stroke="#545555" d="M308.29 311.75c-.23.52-.64.26-.86-.09a.43.42-16.8 0 0-.38-.2q-7.79.25-15.11 2.62c-10.25 3.33-21.48 3.53-32.13 2.59q-3.79-.33-7.11.22c-3.88.64-10.64 2.61-14.25 1.1-4.93-2.05-9.36.43-14.16-.54-2.24-.46-5.64-2.55-7.55-2.11a1.41 1.41 0 0 1-.97-.14q-1.7-.95-3.51-.48a.26.26 0 0 1-.33-.29l.1-.81q.06-.46-.27-.14-.37.35-.76-.02" vector-effect="non-scaling-stroke"/><path stroke="#22bc23" d="M176.52 365.93q-7.51-6.16-13.93-13.3c-5.03-5.6-9.51-13.37-14.48-19.96q-2.06-2.74-3.15-5.18c-1.18-2.67-1.68-6.28-4.59-7.57a.62.62 0 0 1-.35-.74l.55-1.99a.21.21 0 0 0-.17-.27l-.3-.05q-.21-.03-.06-.18.48-.49.42-1.19M389 321.96q-.18.04-.37-.01-.75-.18-.32.24l.19.19a.36.36 0 0 1 .03.49c-2.76 3.39-3.37 12.37-4.25 16.83q-.09.45-.21.01l-.09-.33q-.08-.28-.25-.04-3.75 5.37-7.02 11.03c-1.07 1.86-2.86 2.63-4.32 4.19-.8.86-.95 2.11-2.35 2.87q-.44.24-.71.65-2.21 3.25-5 5.99c-2.05 2.01-5.87 3.14-7.3 6.24q-2.56 5.51-6.46 8.26a.83.81 41.7 0 1-.88.04l-.65-.36" vector-effect="non-scaling-stroke"/><path stroke="#3e3e3e" d="m342.04 382.25-.34 1.13a.77.76 6.7 0 1-.71.55q-3.91.13-7.34 2.07a2.06 1.96 29.2 0 1-1.05.27c-3-.08-5.42-.2-8.4.71-14.48 4.43-24.98 5.02-41.95 5.76q-.99.04-3.83 1.81a1.77 1.76 28 0 1-.92.28q-20.64.5-27.44.12-1.25-.07-3-1.84a1.46 1.42-18.4 0 0-.85-.41q-2.76-.34-3.71-.27-12.83.92-25.62-.33c-5.2-.51-10.27.35-15.6.06-2.8-.15-5.75-1.64-8.8-2.04a1.38 1.34-16.3 0 1-.83-.44c-3.47-3.89-7.12-3.41-10.45-4.91q-2.42-1.07-4.24-1.02" vector-effect="non-scaling-stroke"/><path stroke="#1a6c1b" d="m136.73 466.86-5.33 11.96a.64.62-87.3 0 1-.36.34l-.25.09" vector-effect="non-scaling-stroke"/><path stroke="#2a2a2a" d="M378.21 456.5q-.96.79-1.78-.05a.62.61-47.3 0 0-.92.04l-1.52 1.84a.37.36 35.6 0 1-.48.07c-2.6-1.8-17.97 2.09-21.23 3.73a.22.04-26.6 0 1-.22.06l-.07-.24a.08.08 0 0 0-.09-.06q-6.65.92-13.34 1.73c-3.15.38-7.57-.1-11.45 1.75-2.15 1.02-6.51 1.38-8.8 1.42q-13.17.22-26.35.36c-3.29.04-6.09 1.8-9.71 1.8q-15.89.05-31.78.05c-2.42 0-3.75-1.73-6.43-1.74q-16.34-.1-32.74-.47-.5-.02-.94-.27c-5.52-3.27-9.46-1.52-14.66-1.62q-6.16-.11-12.27-.85-1.03-.13-6.84-1.53c-4.85-1.17-9.04.58-13.53 1.38q-.25.05 0 .03l5.72-.28q.61-.03.05.21-3.8 1.64-8.01.34-2-.63-3.98.48a.64.63 49.9 0 1-.74-.07q-2.72-2.32-6.11-3.55a1.42 1.42 0 0 1-.82-.75q-.71-1.59-2.45-1.32a.81.8 66.5 0 1-.75-.3l-3.26-4.19" vector-effect="non-scaling-stroke"/></g><path fill="none" d="M0 0h512v243.06c-3.17-38.15-11.66-71.63-29.56-105.81-3.38-6.44-6.16-11.54-12.69-14.04l2.15-2.12a.87.86-29.4 0 0 .24-.83q-.7-2.79-2.6-5.01-6.99-11.43-15.79-21.54-22.46-27.75-51.97-47.99L389 37.59q-30.65-19.32-65.76-28.58-8.8-2.32-11.49-2.52c-16.7-1.22-33.41-1.79-50.12-2.66q-12.33-.64-24.62.53c-17.55 1.66-34.19.36-51.46 5.42q-14.79 4.32-28.98 10.29-14.28 6-27.65 13.73Q89.56 56.32 60.46 91q-7.36 8.46-13.71 17.71-2.42 2.71-3.8 6.04a.81.8 36.6 0 0 .13.83l2.42 2.88-1.29-.61a.92.91 41.5 0 0-.87.05q-2.27 1.4-4.53 4.4-7.3 9.72-11.3 17.95C8.37 179.56-1.53 221.95.37 265.77c1.79 41.36 11.99 79.65 32.89 115.48q1.48 2.54 3.9 5.21c3.68 4.07 4.73 8.7 9.38 10.79q-1.29.74-1.9 2a.92.9 43.1 0 0 .04.89q2.59 4.22 6.73 9.68 32.72 43.15 79.38 69.43c1.35.8 2.26 1.97 3.63 2.6q8.2 3.78 16.44 7.48 25.93 11.62 53.63 17.47c13.88 2.93 26.07 3.59 40.69 4.01 22.41.64 43.42.39 64.36-4.37q37.13-8.44 70.78-26.48c2.39-1.28 4.29-2.8 6.43-4.42l7-3.78q42.27-27.11 71.21-68.01 3.31-4 5.34-8.76a.71.71 0 0 0-.16-.79l-1.43-1.45-.08-1.3a.62.62 0 0 1 .53-.65l3.01-.43a1.35 1.34 16.4 0 0 .83-.45q3.08-3.6 4.75-6.45c21.54-36.79 32.47-76.81 34.25-119.41V512H0V0Z"/><path fill="#232323" d="M389 37.59c-5.42 12.79-11.87 25.22-18.04 37.66q-3.9-7.77-12.21-8.38-3.77-.29-5.61-.74c-11.38-2.81-23.27-3.21-34.89-4.56q-10.41-1.22-24.88-1.1c-3.34.03-7.53-1-11.46-.4q-4.33.67-6.05.66-28.68-.08-57.36.3-4.53.06-7.36.6c-7.96 1.51-16.25 2.17-24.33 2.77q-3.55.27-7.58 1.42c-5.47 1.58-11.4 1.89-16.65 3.86-2.88 1.08-5.18.05-8.22 1.81q-.49.28.07.27l.36-.01q.82-.03.24.55-1.7 1.67-4.18 1.26a.82.79-10.7 0 1-.55-.36l-.3-.46q-.18-.28-.3.03l-.91 2.23-19.87-41.2q13.37-7.73 27.65-13.73 14.19-5.97 28.98-10.29c17.27-5.06 33.91-3.76 51.46-5.42q12.29-1.17 24.62-.53c16.71.87 33.42 1.44 50.12 2.66q2.69.2 11.49 2.52 35.11 9.26 65.76 28.58Z"/><path fill="#0dc90c" d="M128.92 33.8 148.79 75l24.46 51.54 18.46 37.71c11.65 23.24 22.61 46.85 33.58 70.5q3.92 7.46 7.75 14.94c2.44 4.77 3.39 7.48 1.49 12.85-6.13 17.33-15.72 34.22-23.53 50.92-11.76 23.17-22.94 47-34.04 70.29l-34.25 70.75-5.98 12.36-2.03-3.45q-.54-.93-.76.13l-.26 1.35q-.09.43-.33.06l-.28-.41q-.61-.92-.59.18l.04 1.99q.01.34-.12.03l-2.01-4.83a1.54 1.5-50.9 0 1-.08-.87q.6-2.76 1.89-4.85c8.72-14.23 13.78-29.66 21.74-44.14 4.48-8.14 7.78-16.53 12.01-24.35q3.63-6.72 5.48-10.79 2.61-5.75 5.09-10.98c2.77-5.74 6.1-10.91 8.37-16.57q3.53-8.82 7.51-17.31c5.02-9.81 10.4-19.54 15.12-29.29 6.2-12.79 13.05-25.25 18.55-38.37 3.7-8.84-1.29-13.98-4.71-21.61-3.24-7.23-6.12-14.96-10.82-23.03L194.46 188l-12.71-26.04-5.71-13.21q-4.96-12.6-11.67-24.32c-6.99-12.21-12.18-24.21-17.82-36.62-2.77-6.1-3.71-9.17-8.38-12.06-1.15-.71-2.73-.55-4.03-.44-2.17.19-4.41-.9-6.54.9a1.51 1.48-66.3 0 1-.87.35c-3.69.24-6.89.12-10.54 1.24q-4.32 1.33-8.76 2.2c-7.65 1.5-14.35 4.09-21.51 6.46a.69.69 0 0 1-.8-.28l-.33-.53a.54.54 0 0 0-.63-.22q-2.03.69-4.05 1.39c-2.64.93-5.58 2.7-8.76 3.4-2.47.55-4.61 1.8-7.2 2.17a.13.12-5.8 0 1-.15-.12v-.31a.45.45 0 0 0-.58-.42q-1.07.33-1.54-.85-.17-.42-.43-.06-.39.5-.99.37 29.1-34.68 68.46-57.2ZM389 37.59l12.78 8.13q-4.23 3.85-8.64 7.42-3.58 2.89-7.19 9.45c-.99 1.8-3.36 3.16-3.91 4.72q-6.87 19.68-17.23 37.75-1.21 2.12-3.49 8.61c-.66 1.9-2.6 4.11-2.28 7.08q-1.16 2.32-5.6 9.69-3.68 6.1-10.78 21.21l-9.75 20.08q-6.8 13.14-10.16 21.02-.74 1.74-1.29 2.25l-.65.53q-.39.31-.56.78-5.37 14.01-8.44 19.75-11.05 20.69-20.27 42.27a1.46 1.44 49.7 0 0-.07.95c.43 1.61.66 3.52 1.42 4.97q11.01 21.17 21.57 42.55c4.75 9.6 11.71 22.47 17.04 33.99l17.54 37.46c3.71 6.82 7.02 12.81 10.32 20.64q3.97 9.41 10.69 21.3c3.64 6.42 7 15.09 11.51 23.08q7.66 13.54 12.19 28.49l-7 3.78c-2-6.69-5.33-12.83-8.54-19.04l-36.17-74.25c-11.5-23.4-22.23-47.29-33.75-70.5q-7.78-17.01-20.09-40.7c-2.55-4.92-6.83-12.6-3.25-19.49q5.29-10.2 10.26-20.56 10.79-21.11 20.83-42.6c3.79-8.11 7.56-15.97 11.75-23.9l19.25-39.5c2.58-4.99 4.83-10.55 7.2-15.17q8.75-17.1 16.72-34.58c6.17-12.44 12.62-24.87 18.04-37.66Z"/><path fill="#33c334" d="M401.78 45.72q29.51 20.24 51.97 47.99-.16-.02-.28.02a.23.22 59.4 0 0-.09.36l.3.34a.33.33 0 0 1-.09.52l-1.48.75q-.45.23-.94.25l-5.06.2a1.25 1.24 20 0 0-.87.4c-1.92 2.13-4.82 1.68-7.48 1.9a.69.68-79.6 0 0-.57.4l-.12.28a.61.61 0 0 1-.49.36l-10.89 1.36q-.23.02-.05-.12l.22-.19q.54-.45-.15-.34c-12.59 1.96-25.66-.62-38.21 1.86-2.81.55-5.16-.19-8.21 1.07q-.5.21-1.04.14-4.03-.52-8 .38a1.53 1.52-78.5 0 0-.87.58q-5.71 7.94-10.34 16.52c-.32-2.97 1.62-5.18 2.28-7.08q2.28-6.49 3.49-8.61 10.36-18.07 17.23-37.75c.55-1.56 2.92-2.92 3.91-4.72q3.61-6.56 7.19-9.45 4.41-3.57 8.64-7.42Z"/><path fill="#313131" d="M370.96 75.25q-7.97 17.48-16.72 34.58c-2.37 4.62-4.62 10.18-7.2 15.17q-.46-1.41.19-2.6a.48.47-62.4 0 0-.2-.65c-4.27-2.17-7.74-3.37-12.92-3.4q-5.76-.03-11.36-1.4c-5.47-1.34-11.18-.5-16.85-1.38q-10.3-1.61-10.34-1.61c-21.09-2.18-44.43-.97-63.79-1.14-12.86-.11-22.45 1.61-33.61 6.1-1.19.48-2.74.38-3.95.21a1.67 1.64 36.2 0 0-.97.14q-2.21 1-4.5.25a1.02 1.01-58.5 0 0-1.03.25q-1.09 1.11-2.61.44-.48-.21-1-.15l-10.64 1.09a.49.49 0 0 0-.38.72q.24.45.2.97-.06.78-.35.06l-.26-.63q-.36-.88-.58.04c-.41 1.72 2.4 2.34 1.16 4.23L148.79 75l.91-2.23q.12-.31.3-.03l.3.46a.82.79-10.7 0 0 .55.36q2.48.41 4.18-1.26.58-.58-.24-.55l-.36.01q-.56.01-.07-.27c3.04-1.76 5.34-.73 8.22-1.81 5.25-1.97 11.18-2.28 16.65-3.86q4.03-1.15 7.58-1.42c8.08-.6 16.37-1.26 24.33-2.77q2.83-.54 7.36-.6 28.68-.38 57.36-.3 1.72.01 6.05-.66c3.93-.6 8.12.43 11.46.4q14.47-.12 24.88 1.1c11.62 1.35 23.51 1.75 34.89 4.56q1.84.45 5.61.74 8.31.61 12.21 8.38Z"/><path fill="#33c334" d="M176.04 148.75c-7.48-.53-15.99 1.64-22.29 6.32q-2.56 1.9-4.4 2.7-9.46 4.07-18.19 9.51-3.15 1.96-6.26 3.06c-4.29 1.51-8.26 1.88-10.65 6.2q-15.9-16.91-32.31-33.34c-9.23-9.24-18.78-20.43-28.76-30.2-1.51-1.48-3.93-2.29-5.74-3.63a.19.08-67.5 0 1 0-.18l.08-.25a.12.11-79.8 0 0-.1-.15l-.67-.08Q53.1 99.46 60.46 91q.6.13.99-.37.26-.36.43.06.47 1.18 1.54.85a.45.45 0 0 1 .58.42v.31a.13.12-5.8 0 0 .15.12c2.59-.37 4.73-1.62 7.2-2.17 3.18-.7 6.12-2.47 8.76-3.4q2.02-.7 4.05-1.39a.54.54 0 0 1 .63.22l.33.53a.69.69 0 0 0 .8.28c7.16-2.37 13.86-4.96 21.51-6.46q4.44-.87 8.76-2.2c3.65-1.12 6.85-1 10.54-1.24a1.51 1.48-66.3 0 0 .87-.35c2.13-1.8 4.37-.71 6.54-.9 1.3-.11 2.88-.27 4.03.44 4.67 2.89 5.61 5.96 8.38 12.06 5.64 12.41 10.83 24.41 17.82 36.62q6.71 11.72 11.67 24.32Z"/><path fill="#55c855" d="M453.75 93.71q8.8 10.11 15.79 21.54c-1.02.31-1.42.15-2.23.94-15.73 15.39-30.97 30.29-46.52 45.31l1.8-2.82a.92.91 49.5 0 0 .06-.86l-1.07-2.38a1.04 1.02 83.2 0 0-.75-.6c-3.71-.77-4.27 1.87-7.27 2.53-1.62.36-3.54-.4-5.47.01-3.89.83-8.66.16-12.69.09-1.06-.01-2.32.33-3.64 0-2.62-.67-4.98-.95-7.61-1.29a.17.17 0 0 1-.15-.17l.01-.3a.46.45-84.7 0 0-.37-.45l-8.14-1.44q-.82-.14-.08.25l.29.15q1.69.89-.14.34-6.2-1.85-12.63-2.34a1.02 1.01-20.6 0 1-.62-.28l-.33-.32a1.14 1.13 65.2 0 0-.89-.33c-3.66.27-6.62.1-9.95-1.46-2.72-1.27-6.35-.09-8.49 1.82q7.1-15.11 10.78-21.21 4.44-7.37 5.6-9.69 4.63-8.58 10.34-16.52a1.53 1.52-78.5 0 1 .87-.58q3.97-.9 8-.38.54.07 1.04-.14c3.05-1.26 5.4-.52 8.21-1.07 12.55-2.48 25.62.1 38.21-1.86q.69-.11.15.34l-.22.19q-.18.14.05.12l10.89-1.36a.61.61 0 0 0 .49-.36l.12-.28a.69.68-79.6 0 1 .57-.4c2.66-.22 5.56.23 7.48-1.9a1.25 1.24 20 0 1 .87-.4l5.06-.2q.49-.02.94-.25l1.48-.75a.33.33 0 0 0 .09-.52l-.3-.34a.23.22 59.4 0 1 .09-.36q.12-.04.28-.02Z"/><path fill="#0dc90c" d="m46.75 108.71.67.08a.12.11-79.8 0 1 .1.15l-.08.25a.19.08-67.5 0 0 0 .18c1.81 1.34 4.23 2.15 5.74 3.63 9.98 9.77 19.53 20.96 28.76 30.2q16.41 16.43 32.31 33.34 8.15 9.55 17.46 17.96L156 218.79q8.08 8.97 17.61 17.18 11.77 9.56 21.74 22.03a1.85 1.84-43.8 0 1-.05 2.38q-5.24 5.97-11.58 11.26c-5.46 4.56-9.34 8.75-13.76 13.61q-15.35 14.54-29.5 30.25c-10.37 10.36-19.58 19.37-31.66 30.43q-14.4 13.17-27.61 27.59a1.79 1.77-74.4 0 1-.89.51q-2.64.63-4.67 2.41a1.15 1.14-21.9 0 0-.39.9c.12 4.24-8.35 10.82-11.56 13.2a1.35 1.33-43 0 1-1.65-.05q-1.81-1.54-4.17-1.69-1.03-.07-.38-.88l1.74-2.15a.14.13-47 0 0 0-.17q-.12-.14-.22-.14c16.41-16.85 33.22-33.28 49.49-50.27q37.17-37.29 74.71-74.24 2.18-2.15.72-3.61-39.24-39.17-78.17-78.63L45.5 118.46l-2.42-2.88a.81.8 36.6 0 1-.13-.83q1.38-3.33 3.8-6.04Z"/><path fill="#3e3e3e" d="m347.04 125-19.25 39.5q.08-.55-.13-1.04a.38.37 53.6 0 0-.63-.1q-.11.12-.3.15a.63.62 26.5 0 1-.39-1.16q2.54-1.46 2.56-4.34a.69.69 0 0 0-.66-.7q-2.48-.12-3.81-2.15a.79.79 0 0 0-.72-.34q-11.52 1.23-14.64.64-8.59-1.62-17.29-2.37c-2.56-.22-4.98-1.48-7.72-1.52q-18.88-.32-40.63.32c-2.67.08-5.4 1.97-7.44 1.9q-15.78-.5-20.68.07-6.47.75-10.7.05c-4.42-.73-7.65 1.85-11.69 2.61q-.5.09-.92.38l-2.08 1.44a.57.56 62.6 0 0-.21.67l2 5.24-18.46-37.71c1.24-1.89-1.57-2.51-1.16-4.23q.22-.92.58-.04l.26.63q.29.72.35-.06.04-.52-.2-.97a.49.49 0 0 1 .38-.72l10.64-1.09q.52-.06 1 .15 1.52.67 2.61-.44a1.02 1.01-58.5 0 1 1.03-.25q2.29.75 4.5-.25a1.67 1.64 36.2 0 1 .97-.14c1.21.17 2.76.27 3.95-.21 11.16-4.49 20.75-6.21 33.61-6.1 19.36.17 42.7-1.04 63.79 1.14q.04 0 10.34 1.61c5.67.88 11.38.04 16.85 1.38q5.6 1.37 11.36 1.4c5.18.03 8.65 1.23 12.92 3.4a.48.47-62.4 0 1 .2.65q-.65 1.19-.19 2.6Z"/><path fill="#0dc90c" d="M469.54 115.25q1.9 2.22 2.6 5.01a.87.86-29.4 0 1-.24.83l-2.15 2.12-57.25 57.5c-10.62 10.38-21.16 21.63-31.34 31.6q-22.32 21.86-44.23 44.12-1.01 1.02-2.05 1.98a.47.46 46.2 0 0-.01.68c13.45 13.22 26.48 27.11 39.88 40.01 10.75 10.34 21.86 21.91 33 32.69l60.96 60.96 1.43 1.45a.71.71 0 0 1 .16.79q-2.03 4.76-5.34 8.76-.46-.4-.33-.96.1-.4-.2-.11l-.23.23q-.31.3-.4-.13-.94-4.71-4.91-6.7-2.57-1.29-3.57-2.2c-5.39-4.9-8.91-9.02-14.93-15.69q-1.57-1.73-4.22-5.77c-2.81-4.3-7.32-7.75-10.18-10.59q-9.9-9.81-19.18-20.2c-5.41-6.07-10.32-13.85-17.81-19.67q-13.69-11.21-25.96-23.96-4.24-5.8-11.41-12.39-14.24-13.11-27.69-26.62a1.32 1.32 0 0 1 .05-1.91q16.27-14.67 31.34-30.5.3-.32.71-.48a1.13 1.13 0 0 0 .63-.63q.9-2.19 2.39-3.41 4.26-3.48 6.48-5.89c2-2.16 4.05-2.01 5.5-5.23q.2-.46.53-.83l.73-.84q.33-.37.77-.59c4.78-2.38 8.49-6.23 8.23-11.88a.82.82 0 0 1 .4-.74l4.51-2.56q4.15-1.13 7.08-4.25.57-.41 1.05-.91 13.06-13.58 26.45-26.84c15.55-15.02 30.79-29.92 46.52-45.31.81-.79 1.21-.63 2.23-.94Z"/><path fill="#3e3e3e" d="m45.5 118.46 60.25 60.25q-.87.76-1.95.89a1.59 1.58-69.2 0 0-.86.39q-1.4 1.24-3.99 2.95c-5.19 3.42-8.78 9.17-15 13.09-5.53 3.47-12.8 10.43-16.53 15.76-2.07 2.95-4.28 5.41-5.79 8.5q-3.62 7.4-6.11 15.25c-1.58 4.99-2.15 10.97-3.32 16.47q-.7 3.33-.16 12.99c.32 5.75 2.74 11.09 4.21 16.7 1.59 6.05 3.56 10.29 6.68 15.17 3.67 5.75 5.82 12.21 10.95 16.83 3.17 2.85 3.56 6.04 7.77 8.39q.46.26.75.7 1.94 2.94 5.51 3.39a1.45 1.43 70.1 0 1 .8.38c2.9 2.72 6.87 5.09 10.56 9.19a1.5 1.49 20.2 0 1 .38.82q.2 1.58 1.75 2.09a.66.65-72.6 0 1 .42.81l-.29 1.01q-.12.41.21.14l6.75-5.43C92.22 352.18 75.41 368.61 59 385.46l-12.46 11.79c-4.65-2.09-5.7-6.72-9.38-10.79q-2.42-2.67-3.9-5.21C12.36 345.42 2.16 307.13.37 265.77c-1.9-43.82 8-86.21 27.14-125.52q4-8.23 11.3-17.95 2.26-3 4.53-4.4a.92.91 41.5 0 1 .87-.05l1.29.61ZM469.75 123.21c6.53 2.5 9.31 7.6 12.69 14.04 17.9 34.18 26.39 67.66 29.56 105.81v21c-1.78 42.6-12.71 82.62-34.25 119.41q-1.67 2.85-4.75 6.45a1.35 1.34 16.4 0 1-.83.45l-3.01.43a.62.62 0 0 0-.53.65l.08 1.3-60.96-60.96q.49-.09.89.17.38.24.36-.21-.01-.21-.21-.3-.56-.25.24-.48 2.51-.74 3.71 1.21a.73.73 0 0 0 .73.34l1.46-.24a1.34 1.32 53.7 0 1 .82.13c4.26 2.21 10.64-8.37 13.59-10.77 3.16-2.57 4.93-6 8.36-8.31 2.93-1.98 4.77-5.28 7.53-7.63q2.11-1.79 3.21-3.66c3.88-6.65 8.76-13.89 10.61-21.4q1.89-7.68 1.94-10.21c.18-7.65 2.8-18.36-.23-26.87-1.29-3.64-4.36-5.58-5.62-9.75-1.69-5.61-4.58-9.45-9.11-13.15q-.39-.32-.58-.79-2.93-7.2-9.03-11.87c-2.02-1.55-2.99-3.26-4.61-5.12-3.17-3.63-3.58-8.26-7.07-11.62-2.64-2.55-6.78-3.29-10.32-3.72a1.44 1.44 0 0 1-.86-2.42q1.88-1.94 1.15-4.47a.51.5-15 0 0-.62-.35l-1.59.41 57.25-57.5Z"/><path fill="#55c855" d="m176.04 148.75 5.71 13.21q-4.07-.3-7.54 1.56c-4.5 2.41-8.95 4.27-13.68 6.15a.83.82 78.6 0 0-.53.8v.31a.88.86-14.3 0 1-.49.81c-3.24 1.54-5.44 4.29-8.43 5.78-5.15 2.55-13.61 6.52-16.16 11.86a1.42 1.4-89.2 0 1-.67.66c-1.93.89-1.45 2.36-2.77 3.22a.41.4 55.4 0 0-.1.58q.27.35.33.81-9.31-8.41-17.46-17.96c2.39-4.32 6.36-4.69 10.65-6.2q3.11-1.1 6.26-3.06 8.73-5.44 18.19-9.51 1.84-.8 4.4-2.7c6.3-4.68 14.81-6.85 22.29-6.32Z"/><path fill="#73d174" d="M420.79 161.5q-13.39 13.26-26.45 26.84-.48.5-1.05.91c-1.31-5-5-4.3-8.19-7.03-3.1-2.64-9-4.29-12.92-5.39q-.35-.1-.15.21l.18.27q.14.23-.12.18c-4.88-.93-10.46-.16-14.96-1.79q-4.62-1.67-9.6-1.76-.27-.01-.07.17l.2.17q.59.52-.18.38c-2.14-.39-3.69-1.63-5.63-2.01q-4.34-.84-8.94-.92l9.75-20.08c2.14-1.91 5.77-3.09 8.49-1.82 3.33 1.56 6.29 1.73 9.95 1.46a1.14 1.13 65.2 0 1 .89.33l.33.32a1.02 1.01-20.6 0 0 .62.28q6.43.49 12.63 2.34 1.83.55.14-.34l-.29-.15q-.74-.39.08-.25l8.14 1.44a.46.45-84.7 0 1 .37.45l-.01.3a.17.17 0 0 0 .15.17c2.63.34 4.99.62 7.61 1.29 1.32.33 2.58-.01 3.64 0 4.03.07 8.8.74 12.69-.09 1.93-.41 3.85.35 5.47-.01 3-.66 3.56-3.3 7.27-2.53a1.04 1.02 83.2 0 1 .75.6l1.07 2.38a.92.91 49.5 0 1-.06.86l-1.8 2.82Z"/><path fill="#4b4b4b" d="M327.79 164.5c-4.19 7.93-7.96 15.79-11.75 23.9Q306 209.89 295.21 231q-1.22.16-1.53 1.32a.59.58 8.2 0 1-.58.43l-.36-.01a.93.91-13.2 0 1-.77-.47c-3.08-5.48-7.13-4.25-12.11-5.1-4.95-.85-10.23.73-14.73-.4-4.47-1.12-10.27-2.15-14.78-.92q-2.14.59-4.29 1.18c-4.15 1.15-10.52-.99-13.21 2.34a.74.74 0 0 1-.74.26l-2-.47a.95.94 21.7 0 0-1.02.43q-1.36 2.25-3.9 1.38a.49.49 0 0 0-.64.38q-.19 1.11.77 2.24a.82.81 35.2 0 1 .15.82q-.06.18-.18.34c-10.97-23.65-21.93-47.26-33.58-70.5l-2-5.24a.57.56 62.6 0 1 .21-.67l2.08-1.44q.42-.29.92-.38c4.04-.76 7.27-3.34 11.69-2.61q4.23.7 10.7-.05 4.9-.57 20.68-.07c2.04.07 4.77-1.82 7.44-1.9q21.75-.64 40.63-.32c2.74.04 5.16 1.3 7.72 1.52q8.7.75 17.29 2.37 3.12.59 14.64-.64a.79.79 0 0 1 .72.34q1.33 2.03 3.81 2.15a.69.69 0 0 1 .66.7q-.02 2.88-2.56 4.34a.63.62 26.5 0 0 .39 1.16q.19-.03.3-.15a.38.37 53.6 0 1 .63.1q.21.49.13 1.04Z"/><path fill="#73d174" d="M181.75 161.96 194.46 188c-2.36.06-4.45 2.66-6.42 3.8q-.15.08.01.14l.27.08a.17.16 26.4 0 1 .09.25c-1.42 1.93-3.16 2.2-4.71 3.11q-3.59 2.09-7.2 4.17a1.55 1.48-3.9 0 0-.64.7c-1.6 3.63-4.39 3.66-6.88 5.67q-1.85 1.51-3.79 2.93c-2.96 2.17-4.78 5.22-7.98 7.4a.8.8 0 0 0-.35.75q.14 1.21-.86 1.79l-24.29-24.29q-.06-.46-.33-.81a.41.4 55.4 0 1 .1-.58c1.32-.86.84-2.33 2.77-3.22a1.42 1.4-89.2 0 0 .67-.66c2.55-5.34 11.01-9.31 16.16-11.86 2.99-1.49 5.19-4.24 8.43-5.78a.88.86-14.3 0 0 .49-.81v-.31a.83.82 78.6 0 1 .53-.8c4.73-1.88 9.18-3.74 13.68-6.15q3.47-1.86 7.54-1.56Z"/><path fill="#8fe58f" d="M332.91 171.73q4.6.08 8.94.92c1.94.38 3.49 1.62 5.63 2.01q.77.14.18-.38l-.2-.17q-.2-.18.07-.17 4.98.09 9.6 1.76c4.5 1.63 10.08.86 14.96 1.79q.26.05.12-.18l-.18-.27q-.2-.31.15-.21c3.92 1.1 9.82 2.75 12.92 5.39 3.19 2.73 6.88 2.03 8.19 7.03q-2.93 3.12-7.08 4.25c-8.67 1.23-17.21 1.39-26.04 1.69-11.1.37-22.17 1.95-33.17 3.35q-1.66.21-5.24-.2a.55.54-85 0 1-.48-.58l.18-2.76q.55-.51 1.29-2.25 3.36-7.88 10.16-21.02Z"/><path fill="#4b4b4b" d="M105.75 178.71q38.93 39.46 78.17 78.63 1.46 1.46-.72 3.61-37.54 36.95-74.71 74.24l-6.75 5.43q-.33.27-.21-.14l.29-1.01a.66.65-72.6 0 0-.42-.81q-1.55-.51-1.75-2.09a1.5 1.49 20.2 0 0-.38-.82c-3.69-4.1-7.66-6.47-10.56-9.19a1.45 1.43 70.1 0 0-.8-.38q-3.57-.45-5.51-3.39-.29-.44-.75-.7c-4.21-2.35-4.6-5.54-7.77-8.39-5.13-4.62-7.28-11.08-10.95-16.83-3.12-4.88-5.09-9.12-6.68-15.17-1.47-5.61-3.89-10.95-4.21-16.7q-.54-9.66.16-12.99c1.17-5.5 1.74-11.48 3.32-16.47q2.49-7.85 6.11-15.25c1.51-3.09 3.72-5.55 5.79-8.5 3.73-5.33 11-12.29 16.53-15.76 6.22-3.92 9.81-9.67 15-13.09q2.59-1.71 3.99-2.95a1.59 1.58-69.2 0 1 .86-.39q1.08-.13 1.95-.89ZM407.75 331.79c-11.14-10.78-22.25-22.35-33-32.69-13.4-12.9-26.43-26.79-39.88-40.01a.47.46 46.2 0 1 .01-.68q1.04-.96 2.05-1.98 21.91-22.26 44.23-44.12c10.18-9.97 20.72-21.22 31.34-31.6l1.59-.41a.51.5-15 0 1 .62.35q.73 2.53-1.15 4.47a1.44 1.44 0 0 0 .86 2.42c3.54.43 7.68 1.17 10.32 3.72 3.49 3.36 3.9 7.99 7.07 11.62 1.62 1.86 2.59 3.57 4.61 5.12q6.1 4.67 9.03 11.87.19.47.58.79c4.53 3.7 7.42 7.54 9.11 13.15 1.26 4.17 4.33 6.11 5.62 9.75 3.03 8.51.41 19.22.23 26.87q-.05 2.53-1.94 10.21c-1.85 7.51-6.73 14.75-10.61 21.4q-1.1 1.87-3.21 3.66c-2.76 2.35-4.6 5.65-7.53 7.63-3.43 2.31-5.2 5.74-8.36 8.31-2.95 2.4-9.33 12.98-13.59 10.77a1.34 1.32 53.7 0 0-.82-.13l-1.46.24a.73.73 0 0 1-.73-.34q-1.2-1.95-3.71-1.21-.8.23-.24.48.2.09.21.3.02.45-.36.21-.4-.26-.89-.17Z"/><path fill="#8fe58f" d="m194.46 188 16.08 31.75q.86 3.73-2.12 4.95-12.98 5.3-34.81 11.27-9.53-8.21-17.61-17.18 1-.58.86-1.79a.8.8 0 0 1 .35-.75c3.2-2.18 5.02-5.23 7.98-7.4q1.94-1.42 3.79-2.93c2.49-2.01 5.28-2.04 6.88-5.67a1.55 1.48-3.9 0 1 .64-.7q3.61-2.08 7.2-4.17c1.55-.91 3.29-1.18 4.71-3.11a.17.16 26.4 0 0-.09-.25l-.27-.08q-.16-.06-.01-.14c1.97-1.14 4.06-3.74 6.42-3.8Z"/><path fill="#49dc4b" d="m386.21 193.5-4.51 2.56a.82.82 0 0 0-.4.74c.26 5.65-3.45 9.5-8.23 11.88q-.44.22-.77.59l-.73.84q-.33.37-.53.83c-1.45 3.22-3.5 3.07-5.5 5.23q-2.22 2.41-6.48 5.89-1.49 1.22-2.39 3.41a1.13 1.13 0 0 1-.63.63q-.41.16-.71.48-15.07 15.83-31.34 30.5a1.32 1.32 0 0 0-.05 1.91q13.45 13.51 27.69 26.62 7.17 6.59 11.41 12.39 2.14 3.47-1.28 5.66-.42.27-.66.7c-1.52 2.72-4.25 4.36-5.77 6.43q-2.29 3.12-4.25 6.48c-1.75 3.02-4.56 4.67-5.96 8.18q-1.07 2.69-2.07 4.12-2.84 4.07-4.96 8.6-.21.43-.55.76l-3.31 3.16a.51.51 0 0 1-.63.06l-2.1-1.36c-5.33-11.52-12.29-24.39-17.04-33.99q-10.56-21.38-21.57-42.55c-.76-1.45-.99-3.36-1.42-4.97a1.46 1.44 49.7 0 1 .07-.95q9.22-21.58 20.27-42.27 3.07-5.74 8.44-19.75.17-.47.56-.78l.65-.53-.18 2.76a.55.54-85 0 0 .48.58q3.58.41 5.24.2c11-1.4 22.07-2.98 33.17-3.35 8.83-.3 17.37-.46 26.04-1.69ZM210.54 219.75c4.7 8.07 7.58 15.8 10.82 23.03 3.42 7.63 8.41 12.77 4.71 21.61-5.5 13.12-12.35 25.58-18.55 38.37-4.72 9.75-10.1 19.48-15.12 29.29q-3.77-1.8-4.87-6.05c-2-7.76-8.22-12.55-10.2-19.92-.66-2.44-1.53-3.65-2.7-5.64-1.35-2.3-1.9-6.1-4.04-8.04q-3.91-3.55-.63-7.15c4.42-4.86 8.3-9.05 13.76-13.61q6.34-5.29 11.58-11.26a1.85 1.84-43.8 0 0 .05-2.38q-9.97-12.47-21.74-22.03 21.83-5.97 34.81-11.27 2.98-1.22 2.12-4.95Z"/><path fill="#5d5e5e" d="M295.21 231q-4.97 10.36-10.26 20.56c-3.58 6.89.7 14.57 3.25 19.49q12.31 23.69 20.09 40.7c-.23.52-.64.26-.86-.09a.43.42-16.8 0 0-.38-.2q-7.79.25-15.11 2.62c-10.25 3.33-21.48 3.53-32.13 2.59q-3.79-.33-7.11.22c-3.88.64-10.64 2.61-14.25 1.1-4.93-2.05-9.36.43-14.16-.54-2.24-.46-5.64-2.55-7.55-2.11a1.41 1.41 0 0 1-.97-.14q-1.7-.95-3.51-.48a.26.26 0 0 1-.33-.29l.1-.81q.06-.46-.27-.14-.37.35-.76-.02c7.81-16.7 17.4-33.59 23.53-50.92 1.9-5.37.95-8.08-1.49-12.85q-3.83-7.48-7.75-14.94.12-.16.18-.34a.82.81 35.2 0 0-.15-.82q-.96-1.13-.77-2.24a.49.49 0 0 1 .64-.38q2.54.87 3.9-1.38a.95.94 21.7 0 1 1.02-.43l2 .47a.74.74 0 0 0 .74-.26c2.69-3.33 9.06-1.19 13.21-2.34q2.15-.59 4.29-1.18c4.51-1.23 10.31-.2 14.78.92 4.5 1.13 9.78-.45 14.73.4 4.98.85 9.03-.38 12.11 5.1a.93.91-13.2 0 0 .77.47l.36.01a.59.58 8.2 0 0 .58-.43q.31-1.16 1.53-1.32Z"/><path fill="#33c334" d="M169.96 285.25q-3.28 3.6.63 7.15c2.14 1.94 2.69 5.74 4.04 8.04 1.17 1.99 2.04 3.2 2.7 5.64 1.98 7.37 8.2 12.16 10.2 19.92q1.1 4.25 4.87 6.05-3.98 8.49-7.51 17.31c-2.27 5.66-5.6 10.83-8.37 16.57q-7.51-6.16-13.93-13.3c-5.03-5.6-9.51-13.37-14.48-19.96q-2.06-2.74-3.15-5.18c-1.18-2.67-1.68-6.28-4.59-7.57a.62.62 0 0 1-.35-.74l.55-1.99a.21.21 0 0 0-.17-.27l-.3-.05q-.21-.03-.06-.18.48-.49.42-1.19 14.15-15.71 29.5-30.25ZM363.04 298q12.27 12.75 25.96 23.96-.18.04-.37-.01-.75-.18-.32.24l.19.19a.36.36 0 0 1 .03.49c-2.76 3.39-3.37 12.37-4.25 16.83q-.09.45-.21.01l-.09-.33q-.08-.28-.25-.04-3.75 5.37-7.02 11.03c-1.07 1.86-2.86 2.63-4.32 4.19-.8.86-.95 2.11-2.35 2.87q-.44.24-.71.65-2.21 3.25-5 5.99c-2.05 2.01-5.87 3.14-7.3 6.24q-2.56 5.51-6.46 8.26a.83.81 41.7 0 1-.88.04l-.65-.36-17.54-37.46 2.1 1.36a.51.51 0 0 0 .63-.06l3.31-3.16q.34-.33.55-.76 2.12-4.53 4.96-8.6 1-1.43 2.07-4.12c1.4-3.51 4.21-5.16 5.96-8.18q1.96-3.36 4.25-6.48c1.52-2.07 4.25-3.71 5.77-6.43q.24-.43.66-.7 3.42-2.19 1.28-5.66Z"/><path fill="#4b4b4b" d="M308.29 311.75c11.52 23.21 22.25 47.1 33.75 70.5l-.34 1.13a.77.76 6.7 0 1-.71.55q-3.91.13-7.34 2.07a2.06 1.96 29.2 0 1-1.05.27c-3-.08-5.42-.2-8.4.71-14.48 4.43-24.98 5.02-41.95 5.76q-.99.04-3.83 1.81a1.77 1.76 28 0 1-.92.28q-20.64.5-27.44.12-1.25-.07-3-1.84a1.46 1.42-18.4 0 0-.85-.41q-2.76-.34-3.71-.27-12.83.92-25.62-.33c-5.2-.51-10.27.35-15.6.06-2.8-.15-5.75-1.64-8.8-2.04a1.38 1.34-16.3 0 1-.83-.44c-3.47-3.89-7.12-3.41-10.45-4.91q-2.42-1.07-4.24-1.02c11.1-23.29 22.28-47.12 34.04-70.29q.39.37.76.02.33-.32.27.14l-.1.81a.26.26 0 0 0 .33.29q1.81-.47 3.51.48a1.41 1.41 0 0 0 .97.14c1.91-.44 5.31 1.65 7.55 2.11 4.8.97 9.23-1.51 14.16.54 3.61 1.51 10.37-.46 14.25-1.1q3.32-.55 7.11-.22c10.65.94 21.88.74 32.13-2.59q7.32-2.37 15.11-2.62a.43.42-16.8 0 1 .38.2c.22.35.63.61.86.09Z"/><path fill="#11b412" d="M140.46 315.5q.06.7-.42 1.19-.15.15.06.18l.3.05a.21.21 0 0 1 .17.27l-.55 1.99a.62.62 0 0 0 .35.74c2.91 1.29 3.41 4.9 4.59 7.57q1.09 2.44 3.15 5.18c4.97 6.59 9.45 14.36 14.48 19.96q6.42 7.14 13.93 13.3-2.48 5.23-5.09 10.98-1.85 4.07-5.48 10.79c-4.23 7.82-7.53 16.21-12.01 24.35-7.96 14.48-13.02 29.91-21.74 44.14q-1.29 2.09-1.89 4.85a1.54 1.5-50.9 0 0 .08.87l2.01 4.83q.13.31.12-.03l-.04-1.99q-.02-1.1.59-.18l.28.41q.24.37.33-.06l.26-1.35q.22-1.06.76-.13l2.03 3.45-5.33 11.96a.64.62-87.3 0 1-.36.34l-.25.09q-46.66-26.28-79.38-69.43-4.14-5.46-6.73-9.68a.92.9 43.1 0 1-.04-.89q.61-1.26 1.9-2L59 385.46q.1 0 .22.14a.14.13-47 0 1 0 .17l-1.74 2.15q-.65.81.38.88 2.36.15 4.17 1.69a1.35 1.33-43 0 0 1.65.05c3.21-2.38 11.68-8.96 11.56-13.2a1.15 1.14-21.9 0 1 .39-.9q2.03-1.78 4.67-2.41a1.79 1.77-74.4 0 0 .89-.51q13.21-14.42 27.61-27.59c12.08-11.06 21.29-20.07 31.66-30.43ZM389 321.96c7.49 5.82 12.4 13.6 17.81 19.67q9.28 10.39 19.18 20.2c2.86 2.84 7.37 6.29 10.18 10.59q2.65 4.04 4.22 5.77c6.02 6.67 9.54 10.79 14.93 15.69q1 .91 3.57 2.2 3.97 1.99 4.91 6.7.09.43.4.13l.23-.23q.3-.29.2.11-.13.56.33.96-28.94 40.9-71.21 68.01-4.53-14.95-12.19-28.49c-4.51-7.99-7.87-16.66-11.51-23.08q-6.72-11.89-10.69-21.3c-3.3-7.83-6.61-13.82-10.32-20.64l.65.36a.83.81 41.7 0 0 .88-.04q3.9-2.75 6.46-8.26c1.43-3.1 5.25-4.23 7.3-6.24q2.79-2.74 5-5.99.27-.41.71-.65c1.4-.76 1.55-2.01 2.35-2.87 1.46-1.56 3.25-2.33 4.32-4.19q3.27-5.66 7.02-11.03.17-.24.25.04l.09.33q.12.44.21-.01c.88-4.46 1.49-13.44 4.25-16.83a.36.36 0 0 0-.03-.49l-.19-.19q-.43-.42.32-.24.19.05.37.01Z"/><path fill="#313131" d="m342.04 382.25 36.17 74.25q-.96.79-1.78-.05a.62.61-47.3 0 0-.92.04l-1.52 1.84a.37.36 35.6 0 1-.48.07c-2.6-1.8-17.97 2.09-21.23 3.73a.22.04-26.6 0 1-.22.06l-.07-.24a.08.08 0 0 0-.09-.06q-6.65.92-13.34 1.73c-3.15.38-7.57-.1-11.45 1.75-2.15 1.02-6.51 1.38-8.8 1.42q-13.17.22-26.35.36c-3.29.04-6.09 1.8-9.71 1.8q-15.89.05-31.78.05c-2.42 0-3.75-1.73-6.43-1.74q-16.34-.1-32.74-.47-.5-.02-.94-.27c-5.52-3.27-9.46-1.52-14.66-1.62q-6.16-.11-12.27-.85-1.03-.13-6.84-1.53c-4.85-1.17-9.04.58-13.53 1.38q-.25.05 0 .03l5.72-.28q.61-.03.05.21-3.8 1.64-8.01.34-2-.63-3.98.48a.64.63 49.9 0 1-.74-.07q-2.72-2.32-6.11-3.55a1.42 1.42 0 0 1-.82-.75q-.71-1.59-2.45-1.32a.81.8 66.5 0 1-.75-.3l-3.26-4.19 34.25-70.75q1.82-.05 4.24 1.02c3.33 1.5 6.98 1.02 10.45 4.91a1.38 1.34-16.3 0 0 .83.44c3.05.4 6 1.89 8.8 2.04 5.33.29 10.4-.57 15.6-.06q12.79 1.25 25.62.33.95-.07 3.71.27a1.46 1.42-18.4 0 1 .85.41q1.75 1.77 3 1.84 6.8.38 27.44-.12a1.77 1.76 28 0 0 .92-.28q2.84-1.77 3.83-1.81c16.97-.74 27.47-1.33 41.95-5.76 2.98-.91 5.4-.79 8.4-.71a2.06 1.96 29.2 0 0 1.05-.27q3.43-1.94 7.34-2.07a.77.76 6.7 0 0 .71-.55l.34-1.13Z"/><path fill="#232323" d="m142.71 454.5 3.26 4.19a.81.8 66.5 0 0 .75.3q1.74-.27 2.45 1.32a1.42 1.42 0 0 0 .82.75q3.39 1.23 6.11 3.55a.64.63 49.9 0 0 .74.07q1.98-1.11 3.98-.48 4.21 1.3 8.01-.34.56-.24-.05-.21l-5.72.28q-.25.02 0-.03c4.49-.8 8.68-2.55 13.53-1.38q5.81 1.4 6.84 1.53 6.11.74 12.27.85c5.2.1 9.14-1.65 14.66 1.62q.44.25.94.27 16.4.37 32.74.47c2.68.01 4.01 1.74 6.43 1.74q15.89 0 31.78-.05c3.62 0 6.42-1.76 9.71-1.8q13.18-.14 26.35-.36c2.29-.04 6.65-.4 8.8-1.42 3.88-1.85 8.3-1.37 11.45-1.75q6.69-.81 13.34-1.73a.08.08 0 0 1 .09.06l.07.24a.22.04-26.6 0 0 .22-.06c3.26-1.64 18.63-5.53 21.23-3.73a.37.36 35.6 0 0 .48-.07l1.52-1.84a.62.61-47.3 0 1 .92-.04q.82.84 1.78.05c3.21 6.21 6.54 12.35 8.54 19.04-2.14 1.62-4.04 3.14-6.43 4.42q-33.65 18.04-70.78 26.48c-20.94 4.76-41.95 5.01-64.36 4.37-14.62-.42-26.81-1.08-40.69-4.01q-27.7-5.85-53.63-17.47-8.24-3.7-16.44-7.48c-1.37-.63-2.28-1.8-3.63-2.6l.25-.09a.64.62-87.3 0 0 .36-.34l5.33-11.96 5.98-12.36Z"/></svg>