<?xml version="1.0" encoding="UTF-8"?>
<svg version="1.1" xmlns="http://www.w3.org/2000/svg" width="206" height="328">
    <path
        d="M0 0 C7.38726837 5.18300281 12.1207372 11.12570346 14 20 C14.62859998 29.11469976 12.85952177 36.26020353 6.9375 43.375 C0.82105898 49.64928466 -5.17967053 52.08083336 -13.875 52.625 C-22.17346402 52.31487699 -29.88702496 48.72088059 -35.5625 42.625 C-41.14769785 35.04626545 -42.02450786 27.28887123 -41 18 C-38.84548387 10.21594172 -34.4621197 4.22953527 -27.4375 0.1875 C-18.87271032 -4.39918979 -8.67333384 -4.53378814 0 0 Z "
        transform="translate(117,29)" />
    <path
        d="M0 0 C1.10156937 -0.00960754 2.20313873 -0.01921509 3.33808899 -0.02911377 C5.12402718 -0.03548859 5.12402718 -0.03548859 6.94604492 -0.04199219 C8.78280037 -0.0505423 8.78280037 -0.0505423 10.65666199 -0.05926514 C13.24994034 -0.06871832 15.84323072 -0.07525038 18.43652344 -0.07910156 C22.40019747 -0.08880278 26.3633521 -0.11982241 30.3269043 -0.15136719 C32.84578142 -0.15789768 35.36466226 -0.16314797 37.88354492 -0.16699219 C39.66037407 -0.18551239 39.66037407 -0.18551239 41.47309875 -0.20440674 C52.02846721 -0.17589462 52.02846721 -0.17589462 56.61401367 3.16113281 C58.2980957 5.11206055 58.2980957 5.11206055 59.62182617 7.34472656 C60.38124512 8.59890381 60.38124512 8.59890381 61.15600586 9.87841797 C61.93959473 11.22492432 61.93959473 11.22492432 62.73901367 12.59863281 C63.29234375 13.52208496 63.84567383 14.44553711 64.41577148 15.39697266 C65.57377303 17.33233939 66.72536724 19.27155283 67.87084961 21.21435547 C69.58970881 24.12004602 71.33504694 27.00794361 73.09057617 29.89160156 C74.18219295 31.68949279 75.27335647 33.48765932 76.36401367 35.28613281 C77.13382568 36.55541626 77.13382568 36.55541626 77.91918945 37.8503418 C78.3908252 38.63610596 78.86246094 39.42187012 79.34838867 40.23144531 C79.76314453 40.91996582 80.17790039 41.60848633 80.60522461 42.31787109 C81.61401367 44.16113281 81.61401367 44.16113281 82.61401367 47.16113281 C83.92635003 47.86823642 85.26539829 48.52594877 86.61401367 49.16113281 C88.51504903 50.54266602 90.38634667 51.96538234 92.23901367 53.41113281 C93.38481324 54.30440529 94.53064874 55.19763168 95.67651367 56.09082031 C96.29913086 56.57776367 96.92174805 57.06470703 97.56323242 57.56640625 C99.82052981 59.3217237 102.09141482 61.05848961 104.36401367 62.79394531 C105.98910529 64.04122178 107.61410599 65.28861672 109.23901367 66.53613281 C110.02099121 67.13071289 110.80296875 67.72529297 111.60864258 68.33789062 C112.34518066 68.90604492 113.08171875 69.47419922 113.84057617 70.05957031 C114.49622559 70.56149902 115.151875 71.06342773 115.82739258 71.58056641 C118.99545001 74.38324525 120.4870739 76.30428933 121.11401367 80.53613281 C120.45871734 85.28703125 119.28957843 87.08566026 115.61401367 90.16113281 C111.78708479 91.02320186 108.12202094 90.90473078 104.57958984 89.15795898 C102.51203328 87.71378105 100.59799653 86.16957953 98.67651367 84.53613281 C97.2040072 83.34714522 95.73134537 82.15835 94.25854492 80.96972656 C93.5026709 80.34694824 92.74679688 79.72416992 91.96801758 79.08251953 C87.99616909 75.84061457 83.92318837 72.7299129 79.86401367 69.59863281 C78.38909932 68.45272685 76.91508582 67.30566007 75.44213867 66.15722656 C74.51256348 65.43297485 74.51256348 65.43297485 73.56420898 64.6940918 C72.92064453 64.18821533 72.27708008 63.68233887 71.61401367 63.16113281 C70.85836121 62.64998428 70.10270874 62.13883575 69.32415771 61.61219788 C65.71028773 58.34379947 63.66451025 54.63302002 61.30151367 50.41113281 C60.84711914 49.61835938 60.39272461 48.82558594 59.92456055 48.00878906 C58.8118881 46.06454036 57.70879875 44.11549151 56.61401367 42.16113281 C55.97565269 67.97866056 56.68114931 93.53695808 58.80151367 119.27832031 C58.85628624 119.9439074 58.91105881 120.6094945 58.96749115 121.29525089 C59.64273866 129.46702239 60.34902865 137.63598039 61.06783485 145.80402303 C61.86821048 154.90624897 62.6385808 164.01103547 63.40943909 173.11580086 C63.52425279 174.47141721 63.6390751 175.82703283 63.75390625 177.18264771 C63.80993295 177.8444822 63.86595964 178.5063167 63.92368412 179.18820679 C64.30522958 183.6865518 64.69569308 188.18406686 65.08935547 192.68136597 C65.19202728 193.86787247 65.2946991 195.05437897 65.40048218 196.27684021 C65.59073812 198.47513612 65.7835103 200.67321646 65.97940063 202.87101746 C67.40566625 219.47365395 67.40566625 219.47365395 63.61401367 225.16113281 C59.71147593 229.34242325 56.67123685 231.0268443 50.92260742 231.35644531 C46.95376649 231.02067197 43.68999262 229.68383075 40.61401367 227.16113281 C37.12214928 222.66938777 36.01282889 219.35983948 35.4855957 213.72314453 C35.41313692 212.99150526 35.34067814 212.25986599 35.26602364 211.50605583 C35.029904 209.05909114 34.82056571 206.61076021 34.61401367 204.16113281 C34.45646408 202.40119355 34.29855632 200.64128633 34.14031982 198.88140869 C33.62031255 192.9795919 33.14360148 187.07453373 32.66870117 181.16894531 C32.4924295 179.00322615 32.31592164 176.83752621 32.13919067 174.67184448 C31.77264545 170.1724924 31.40809113 165.67298535 31.04516602 161.17333984 C30.57961296 155.40183613 30.11025856 149.63064946 29.63960075 143.85956001 C29.27655919 139.40567292 28.91483892 134.95167937 28.55359268 130.49764633 C28.38080775 128.36771424 28.20776181 126.2378033 28.03445053 124.10791397 C27.79393268 121.14805128 27.55503837 118.18806224 27.31665039 115.22802734 C27.24498657 114.34914856 27.17332275 113.47026978 27.0994873 112.5647583 C26.84769943 109.42187727 26.61401367 106.31553046 26.61401367 103.16113281 C23.97401367 103.16113281 21.33401367 103.16113281 18.61401367 103.16113281 C18.55990829 104.43991806 18.50580292 105.71870331 18.45005798 107.03623962 C17.89849654 119.58298566 17.07902916 132.08623206 16.05541992 144.60253906 C15.9045431 146.47190619 15.75382544 148.34128617 15.60325623 150.2106781 C15.29043777 154.08376334 14.97499388 157.95662343 14.65771484 161.8293457 C14.25403338 166.76062592 13.85824572 171.69250481 13.46452427 176.62458897 C13.1566646 180.46757687 12.84405199 184.31016743 12.53010368 188.15266228 C12.38222355 189.97077606 12.23590687 191.7890178 12.09127998 193.60739326 C9.79871484 222.34658358 9.79871484 222.34658358 4.17651367 227.88769531 C0.5279073 230.8613095 -2.21946004 231.32869636 -6.82348633 231.03613281 C-12.11633979 230.27875278 -15.76866511 228.30816784 -19.03063965 223.97781372 C-24.15646789 213.32531959 -19.76707502 195.00880294 -18.71922302 183.55099869 C-18.40759606 180.12547579 -18.10813645 176.69907201 -17.81188965 173.27218628 C-16.96942414 163.53710704 -16.11662905 153.80305133 -15.23120117 144.07177734 C-12.17266725 110.34474111 -10.7453624 77.0274154 -11.38598633 43.16113281 C-12.06363037 44.27117676 -12.74127441 45.3812207 -13.43945312 46.52490234 C-14.34193477 47.9897491 -15.24470039 49.45442093 -16.14770508 50.91894531 C-16.59271362 51.64960205 -17.03772217 52.38025879 -17.49621582 53.13305664 C-20.83368824 58.52753937 -24.2270161 62.43219293 -29.38598633 66.16113281 C-31.36537933 67.70250887 -33.34452015 69.24420879 -35.32348633 70.78613281 C-37.02729222 72.0878855 -38.73491022 73.38453536 -40.44262695 74.68115234 C-42.61146759 76.33284983 -44.77252653 77.99442067 -46.93286133 79.65722656 C-48.47970953 80.84606352 -50.02658425 82.03486597 -51.57348633 83.22363281 C-52.31655029 83.7961377 -53.05961426 84.36864258 -53.82519531 84.95849609 C-54.51943604 85.49071777 -55.21367676 86.02293945 -55.92895508 86.57128906 C-56.54794678 87.04703369 -57.16693848 87.52277832 -57.8046875 88.01293945 C-60.89824212 90.25919349 -63.52042866 90.56054092 -67.34692383 90.50488281 C-70.91261903 89.90376944 -72.34648501 88.00407404 -74.38598633 85.16113281 C-75.62353488 81.52583394 -75.65522467 79.84908319 -74.25317383 76.26660156 C-72.08704167 72.66393406 -69.90091709 70.88105792 -66.51098633 68.41113281 C-65.34019751 67.54423682 -64.16963093 66.67704062 -62.99926758 65.80957031 C-62.10135498 65.15359863 -62.10135498 65.15359863 -61.18530273 64.484375 C-58.32241978 62.37897125 -55.51182265 60.20702702 -52.69848633 58.03613281 C-51.72524414 57.29105469 -50.75200195 56.54597656 -49.74926758 55.77832031 C-48.97583008 55.16633789 -48.97583008 55.16633789 -48.18676758 54.54199219 C-46.84471123 53.51288825 -45.46560262 52.53176419 -44.06958008 51.57714844 C-36.31199468 45.98571958 -32.24143161 39.109261 -27.76098633 30.91113281 C-26.35970672 28.40163901 -24.94772186 25.89824871 -23.53442383 23.39550781 C-23.19272156 22.7871106 -22.85101929 22.17871338 -22.4989624 21.55187988 C-10.33647429 0.07275467 -10.33647429 0.07275467 0 0 Z "
        transform="translate(80.385986328125,86.8388671875)" />
</svg>